<svg width="24" height="24" viewBox="0 0 24 24" fill="none" xmlns="http://www.w3.org/2000/svg">
<path fill-rule="evenodd" clip-rule="evenodd" d="M7.20921 7.10765C7.48816 6.8287 7.94042 6.8287 8.21936 7.10765L12 10.8883L15.7806 7.10765C16.0596 6.8287 16.5118 6.8287 16.7908 7.10765C17.0697 7.38659 17.0697 7.83885 16.7908 8.1178L13.0102 11.8984L16.7908 15.6791C17.0697 15.958 17.0697 16.4103 16.7908 16.6892C16.5118 16.9682 16.0596 16.9682 15.7806 16.6892L12 12.9086L8.21936 16.6892C7.94042 16.9682 7.48816 16.9682 7.20921 16.6892C6.93026 16.4103 6.93026 15.958 7.20921 15.6791L10.9898 11.8984L7.20921 8.1178C6.93026 7.83885 6.93026 7.38659 7.20921 7.10765Z" fill="white"/>
</svg>
